<?xml version="1.0" encoding="UTF-8"?>
<svg id="Capa_1" xmlns="http://www.w3.org/2000/svg" version="1.1" viewBox="0 0 682.7 644.4">
  <!-- Generator: Adobe Illustrator 29.3.1, SVG Export Plug-In . SVG Version: 2.1.0 Build 151)  -->
  <defs>
    <style>
      .st0 {
        fill: #d93a26;
      }
    </style>
  </defs>
  <path class="st0" d="M450.8,270.7h64.8c2.2,0,4.3.6,6.1,1.7,0,.3,0,.6,0,1v321.3c0,14,13.6,23.9,26.9,19.8h0c.2,0,.4-.1.6-.2,30.2-12,69.8-27.9,98.4-40.8,5.2-2.1,11.5-5,11.8-14.5v-285.6c0-.6,0-1.1,0-1.6v-1h0V75.1c0-11.5-9.4-20.9-20.9-20.9h-48.5c-8.7,0-16.6,5.4-19.6,13.6-19.9,55.1-57.5,96.2-114.4,106.4-2.6.5-5.2.9-7.9,1.2-10.4,1.3-18.2,10.2-18.2,20.7v53.7c0,11.5,9.4,20.9,20.9,20.9Z"/>
  <path class="st0" d="M536.4,32.7c-2.8-2.8-6.5-4.6-10.7-4.6H49.3c-15,0-27.1,11-27.1,24.6v72.1c0,17.4,3.2,25.1,25,25.1h159.1c4.2,0,7.6,3.4,7.6,7.6v60.5c0,.3,0,.5,0,.7v339c0,7.5,5.1,13.5,12,16.5,14.2,6.1,62.6,29.9,78.8,38.4,20.6,10.9,45.2-6.6,45.2-29.9V169c0-1-.1-3-.1-3-1.2-5.4.7-11.7,6.1-13.9,1.2-.5,2.7-.8,4.2-.8h52.1c.2,0,.3,0,.3,0,113.4-11.1,125.1-98.7,126-108.6,0-.6,0-1.1,0-1.6v-2.4c0-2.2-.8-4.4-2.3-6Z"/>
</svg>